<?xml version="1.0" encoding="UTF-8"?>
<svg width="34px" height="32px" viewBox="0 0 34 32" version="1.1" xmlns="http://www.w3.org/2000/svg" xmlns:xlink="http://www.w3.org/1999/xlink">
    <!-- Generator: Sketch 42 (36781) - http://www.bohemiancoding.com/sketch -->
    <title>Shape</title>
    <desc>Created with Sketch.</desc>
    <defs></defs>
    <g id="Page-1" stroke="none" stroke-width="1" fill="none" fill-rule="evenodd" opacity="0.8">
        <path d="M27.0353202,0 L0,7.07377516 L0,31.3896299 L27.561007,27.852446 C28.3306611,27.5395572 28.6680313,26.762076 28.8376749,26.0746689 L28.8376749,1.77777712 C28.8376749,0.592592373 28.2365542,0 27.0353202,0 Z M33.6251796,4.70340567 L30.0392447,4.72118344 L30.0392447,8.29510804 L33.6251796,8.29510804 C33.624729,6.35081246 33.6253478,5.93836817 33.6251796,4.70340567 L33.6251796,4.70340567 Z M30.0392447,10.6666627 L30.0392447,13.0370322 L33.6251796,13.0370322 C33.6246148,12.2222177 33.6256662,11.6094772 33.6251796,10.6666627 L30.0392447,10.6666627 Z M30.0392447,15.4074136 L30.0392447,26.0746689 C30.0392447,26.8645945 29.674683,27.5508165 29.23194,28.0746681 C28.7977888,28.615705 28.2522587,28.8616308 27.6361051,29.0370381 L4.58098482,32 C15.9160181,32 20.1459276,31.9940741 33.6439541,31.9644445 C33.6409502,26.2293355 33.6294752,20.4023747 33.6252096,15.4085987 L30.0392447,15.4074136 Z M23.9750722,23.685929 C24.6042748,23.6325957 25.2260391,24.1487436 25.2801152,24.7691879 C25.3341858,25.3896321 24.810812,26.0029652 24.181592,26.0562985 L19.3753128,26.6488909 C18.7498183,26.7288908 18.10708,26.2388169 18.0282396,25.6213357 C17.9494046,25.004447 18.448813,24.372151 19.0749204,24.2968917 C20.7038946,24.090077 22.3554763,23.904003 23.9750722,23.685929 Z" id="Shape" fill="#3F3F3F" fill-rule="nonzero"></path>
    </g>
</svg>