<?xml version="1.0" encoding="UTF-8"?>
<svg width="32px" height="32px" viewBox="0 0 32 32" version="1.1" xmlns="http://www.w3.org/2000/svg" xmlns:xlink="http://www.w3.org/1999/xlink">
    <!-- Generator: Sketch 42 (36781) - http://www.bohemiancoding.com/sketch -->
    <title>Path</title>
    <desc>Created with Sketch.</desc>
    <defs></defs>
    <g id="Page-1" stroke="none" stroke-width="1" fill="none" fill-rule="evenodd" opacity="0.8">
        <path d="M1.60210804,32 L7.04084321,32 L25.0013175,32 L30.4400527,32 C31.3254282,32 32,31.3170426 32,30.5135632 L32,28.7057347 C32,27.1389499 31.2411067,25.6525131 29.9341238,24.6883379 C26.1396574,21.8761602 22.3030303,20.0281577 21.4598155,19.626418 C21.3754941,19.586244 21.2911726,19.5058961 21.2911726,19.3853742 L21.2911726,16.8142403 C21.71278,16.0107609 21.9235837,15.1671076 22.0922266,14.4038022 C22.4716733,14.644846 23.0619236,14.5243241 23.7364954,12.274582 C24.284585,10.4667534 23.9472991,9.82396993 23.483531,9.70344803 C25.0013175,2.75335165 21.544137,2.51230785 21.544137,2.51230785 C21.544137,2.51230785 21.0382082,1.54813263 19.6469038,0.825001212 C18.7193676,0.302739635 17.4545455,-0.0990000404 15.7259552,0.0215218621 C15.1778656,0.0616958296 14.6719368,0.142043765 14.1660079,0.302739635 C13.5335968,0.503609472 12.9855072,0.784827245 12.4374177,1.14639295 C11.8050066,1.54813263 11.2147563,1.99004627 10.6666667,2.55248182 C9.82345191,3.35596117 9.06455863,4.44065829 8.76943347,5.72622525 C8.4743083,6.85109634 8.4743083,8.05631536 8.93807642,9.26153439 C8.30566535,9.22136042 7.58893281,9.54275216 8.26350461,11.8728423 C8.76943347,13.6003229 9.23320158,14.0422365 9.61264822,14.0824105 C9.78129117,15.0465857 10.0764163,16.1312828 10.7088274,17.135632 L10.7088274,19.3853742 C10.7088274,19.5058961 10.6666667,19.586244 10.5401845,19.626418 C9.6969697,20.0281577 5.86034256,21.8761602 2.06587615,24.6883379 C0.758893281,25.6525131 3.73034936e-14,27.1389499 3.73034936e-14,28.7057347 L3.73034936e-14,30.5135632 C0.0421607378,31.3170426 0.758893281,32 1.60210804,32 Z" id="Path" fill="#404040"></path>
    </g>
</svg>