<?xml version="1.0" encoding="UTF-8"?>
<svg width="32px" height="32px" viewBox="0 0 32 32" version="1.1" xmlns="http://www.w3.org/2000/svg" xmlns:xlink="http://www.w3.org/1999/xlink">
    <!-- Generator: Sketch 42 (36781) - http://www.bohemiancoding.com/sketch -->
    <title>Group</title>
    <desc>Created with Sketch.</desc>
    <defs></defs>
    <g id="Page-1" stroke="none" stroke-width="1" fill="none" fill-rule="evenodd" opacity="0.8">
        <g id="Group" fill-rule="nonzero" fill="#3F3F3F">
            <path d="M28.1,13.5 L16.5,20.2 C16.2,20.4 15.8,20.4 15.5,20.2 L3.9,13.5 L0.8,15.3 C0.5,15.5 0.5,16 0.8,16.2 L15.6,24.7 C15.9,24.9 16.3,24.9 16.6,24.7 L31.4,16.2 C31.7,16 31.7,15.5 31.4,15.3 L28.1,13.5 Z" id="Shape"></path>
            <path d="M28.1,20.5 L16.5,27.2 C16.2,27.4 15.8,27.4 15.5,27.2 L3.9,20.5 L0.8,22.3 C0.5,22.5 0.5,23 0.8,23.2 L15.6,31.7 C15.9,31.9 16.3,31.9 16.6,31.7 L31.4,23.2 C31.7,23 31.7,22.5 31.4,22.3 L28.1,20.5 Z" id="Shape"></path>
            <path d="M15.5,18.2 C15.8,18.4 16.2,18.4 16.5,18.2 L31.3,9.7 C31.6,9.5 31.6,9 31.3,8.8 L16.5,0.3 C16.2,0.1 15.8,0.1 15.5,0.3 L0.7,8.8 C0.4,9 0.4,9.5 0.7,9.7 L15.5,18.2 Z" id="Shape"></path>
        </g>
    </g>
</svg>