<?xml version="1.0" encoding="UTF-8"?>
<svg width="121px" height="119px" viewBox="0 0 121 119" version="1.1" xmlns="http://www.w3.org/2000/svg" xmlns:xlink="http://www.w3.org/1999/xlink">
    <!-- Generator: Sketch 42 (36781) - http://www.bohemiancoding.com/sketch -->
    <title>unhappy</title>
    <desc>Created with Sketch.</desc>
    <defs></defs>
    <g id="Page-1" stroke="none" stroke-width="1" fill="none" fill-rule="evenodd">
        <g id="unhappy" fill-rule="nonzero">
            <path d="M62.5,9.3125 C90.7700756,9.3125 113.6875,32.2299244 113.6875,60.5 C113.6875,88.7700756 90.7700756,111.6875 62.5,111.6875 C34.2299244,111.6875 11.3125,88.7700756 11.3125,60.5 C11.3125,32.2299244 34.2299244,9.3125 62.5,9.3125 L62.5,9.3125 Z M62.5,2 C30.1913421,2 4,28.1913421 4,60.5 C4,92.8086579 30.1913421,119 62.5,119 C94.8086579,119 121,92.8086579 121,60.5 C121,44.9848353 114.836625,30.1051314 103.865747,19.1342533 C92.8948686,8.16337516 78.0151647,2 62.5,2 L62.5,2 Z" id="Shape-Copy-4" fill="#7FCA88"></path>
            <path d="M58.5,7.3125 C86.7700756,7.3125 109.6875,30.2299244 109.6875,58.5 C109.6875,86.7700756 86.7700756,109.6875 58.5,109.6875 C30.2299244,109.6875 7.3125,86.7700756 7.3125,58.5 C7.3125,30.2299244 30.2299244,7.3125 58.5,7.3125 L58.5,7.3125 Z M58.5,2.59792188e-15 C26.1913421,-2.59792188e-15 2.59792188e-15,26.1913421 0,58.5 C-2.59792188e-15,90.8086579 26.1913421,117 58.5,117 C90.8086579,117 117,90.8086579 117,58.5 C117,42.9848353 110.836625,28.1051314 99.8657467,17.1342533 C88.8948686,6.16337516 74.0151647,0 58.5,0 L58.5,2.59792188e-15 Z" id="Shape" fill="#3B673B"></path>
            <path d="M40.5625,34.36875 C36.175,34.36875 32.51875,38.63925 32.51875,43.875 C32.5193373,45.4575801 32.868886,47.0205621 33.5425,48.452625 C33.9024349,49.2262239 34.6782659,49.7209464 35.5315,49.7209464 C36.3847341,49.7209464 37.1605651,49.2262239 37.5205,48.452625 C37.9944152,47.1410923 39.1756997,46.2153742 40.5625,46.06875 C41.9547872,46.2100513 43.1429365,47.1366941 43.619125,48.452625 C43.9790599,49.2262239 44.7548909,49.7209464 45.608125,49.7209464 C46.4613591,49.7209464 47.2371901,49.2262239 47.597125,48.452625 C48.2656959,47.0194099 48.6102397,45.4564793 48.60625,43.875 C48.60625,38.63925 44.95,34.36875 40.5625,34.36875 Z" id="Shape-Copy-3" fill="#7FCA88"></path>
            <path d="M84.4375,34.36875 C80.05,34.36875 76.39375,38.63925 76.39375,43.875 C76.3943373,45.4575801 76.743886,47.0205621 77.4175,48.452625 C77.7774349,49.2262239 78.5532659,49.7209464 79.4065,49.7209464 C80.2597341,49.7209464 81.0355651,49.2262239 81.3955,48.452625 C81.7471596,47.0551465 83.0037675,46.0755748 84.4448125,46.0755748 C85.8858575,46.0755748 87.1424654,47.0551465 87.494125,48.452625 C87.8540599,49.2262239 88.6298909,49.7209464 89.483125,49.7209464 C90.3363591,49.7209464 91.1121901,49.2262239 91.472125,48.452625 C92.1406959,47.0194099 92.4852397,45.4564793 92.48125,43.875 C92.48125,38.63925 88.825,34.36875 84.4375,34.36875 Z" id="Shape-Copy-2" fill="#7FCA88"></path>
            <path d="M82.170625,85.55625 C81.2121703,85.5557332 80.2925611,85.1773797 79.61125,84.50325 C70.1121101,75.1577577 54.8732649,75.1577577 45.374125,84.50325 C44.448936,85.4448733 43.0880096,85.8146592 41.8135139,85.470726 C40.5390183,85.1267929 39.5488838,84.122554 39.223011,82.8433213 C38.8971382,81.5640887 39.2861354,80.2085286 40.24075,79.29675 C52.5850862,67.1545812 72.3856638,67.1545812 84.73,79.29675 C85.7851805,80.3373695 86.1078286,81.9120156 85.546948,83.2837692 C84.9860675,84.6555228 83.6526117,85.5530236 82.170625,85.55625 L82.170625,85.55625 Z" id="Shape-Copy" fill="#7FCA88"></path>
            <path d="M36.5625,34.36875 C32.175,34.36875 28.51875,38.63925 28.51875,43.875 C28.5193373,45.4575801 28.868886,47.0205621 29.5425,48.452625 C29.9024349,49.2262239 30.6782659,49.7209464 31.5315,49.7209464 C32.3847341,49.7209464 33.1605651,49.2262239 33.5205,48.452625 C33.9944152,47.1410923 35.1756997,46.2153742 36.5625,46.06875 C37.9547872,46.2100513 39.1429365,47.1366941 39.619125,48.452625 C39.9790599,49.2262239 40.7548909,49.7209464 41.608125,49.7209464 C42.4613591,49.7209464 43.2371901,49.2262239 43.597125,48.452625 C44.2656959,47.0194099 44.6102397,45.4564793 44.60625,43.875 C44.60625,38.63925 40.95,34.36875 36.5625,34.36875 Z" id="Shape" fill="#3B673B"></path>
            <path d="M80.4375,34.36875 C76.05,34.36875 72.39375,38.63925 72.39375,43.875 C72.3943373,45.4575801 72.743886,47.0205621 73.4175,48.452625 C73.7774349,49.2262239 74.5532659,49.7209464 75.4065,49.7209464 C76.2597341,49.7209464 77.0355651,49.2262239 77.3955,48.452625 C77.7471596,47.0551465 79.0037675,46.0755748 80.4448125,46.0755748 C81.8858575,46.0755748 83.1424654,47.0551465 83.494125,48.452625 C83.8540599,49.2262239 84.6298909,49.7209464 85.483125,49.7209464 C86.3363591,49.7209464 87.1121901,49.2262239 87.472125,48.452625 C88.1406959,47.0194099 88.4852397,45.4564793 88.48125,43.875 C88.48125,38.63925 84.825,34.36875 80.4375,34.36875 Z" id="Shape" fill="#3B673B"></path>
            <path d="M78.170625,85.55625 C77.2121703,85.5557332 76.2925611,85.1773797 75.61125,84.50325 C66.1121101,75.1577577 50.8732649,75.1577577 41.374125,84.50325 C40.448936,85.4448733 39.0880096,85.8146592 37.8135139,85.470726 C36.5390183,85.1267929 35.5488838,84.122554 35.223011,82.8433213 C34.8971382,81.5640887 35.2861354,80.2085286 36.24075,79.29675 C48.5850862,67.1545812 68.3856638,67.1545812 80.73,79.29675 C81.7851805,80.3373695 82.1078286,81.9120156 81.546948,83.2837692 C80.9860675,84.6555228 79.6526117,85.5530236 78.170625,85.55625 L78.170625,85.55625 Z" id="Shape" fill="#3B673B"></path>
        </g>
    </g>
</svg>