<?xml version="1.0" encoding="UTF-8"?>
<svg width="153px" height="104px" viewBox="0 0 153 104" version="1.1" xmlns="http://www.w3.org/2000/svg" xmlns:xlink="http://www.w3.org/1999/xlink">
    <!-- Generator: Sketch 42 (36781) - http://www.bohemiancoding.com/sketch -->
    <title>Payment method</title>
    <desc>Created with Sketch.</desc>
    <defs></defs>
    <g id="Page-1" stroke="none" stroke-width="1" fill="none" fill-rule="evenodd">
        <g id="Payment-method" fill-rule="nonzero">
            <g id="color_30_" transform="translate(13.909091, 10.400000)" fill="#7FCA88">
                <path d="M72.3516136,88.14 C72.3516136,88.14 63.8566364,78.8042667 63.8566364,68.64 C63.8566364,56.1877333 72.0177955,49.6565333 74.0311364,46.8 C75.9297273,44.1064 86.3024318,37.4122667 86.3024318,24.96 C86.3024318,15.5792 80.1928636,6.4376 76.5834545,1.96213333 C75.77325,0.572 73.6555909,0 73.6555909,0 L3.16084091,0 C1.41525,0 0,1.39706667 0,3.12 L0,90.48 C0,92.2029333 1.41525,93.6 3.16084091,93.6 L70.1748409,93.6 C71.9204318,93.6 73.3356818,92.2029333 73.3356818,90.48 C73.3391591,88.7432 72.3516136,88.14 72.3516136,88.14 Z M135.930068,0 C135.930068,0 89.5328182,0.0554666667 89.1955227,0.0554666667 C87.5820682,0.194133333 86.3024318,1.49066667 86.3024318,3.12346667 C86.3024318,3.99706667 86.6675455,4.78053333 87.2552045,5.34906667 C87.2552045,5.34906667 90.8124545,9.1832 92.8014545,13.7626667 C95.0582045,18.9522667 95.7849545,24.9634667 95.7849545,24.9634667 C95.7849545,37.4157333 84.2473636,44.2762667 82.2305455,46.8034667 C80.1198409,49.4485333 73.3391591,56.1912 73.3391591,68.6434667 C73.3391591,79.8581333 83.3363182,92.2410667 83.3363182,92.2410667 C83.3363182,92.2410667 84.0769773,93.6 85.9825227,93.6 L135.930068,93.6 C137.675659,93.6 139.090909,92.2029333 139.090909,90.48 L139.090909,3.12 C139.090909,1.39706667 137.675659,0 135.930068,0 Z" id="Shape"></path>
            </g>
            <g id="outline_29_" fill="#3B673B">
                <path d="M41.7272727,41.6 C41.7272727,43.5170667 43.2850909,45.0666667 45.2045455,45.0666667 C47.124,45.0666667 48.6818182,43.5170667 48.6818182,41.6 C48.6818182,34.8885333 42.7078636,29.2968 34.7727273,28.0141333 L34.7727273,24.2666667 C34.7727273,22.3496 33.2149091,20.8 31.2954545,20.8 C29.376,20.8 27.8181818,22.3496 27.8181818,24.2666667 L27.8181818,28.0141333 C19.8830455,29.2968 13.9090909,34.8885333 13.9090909,41.6 C13.9090909,48.3114667 19.8830455,53.9032 27.8181818,55.1858667 L27.8181818,68.9104 C23.7741136,67.9536 20.8636364,65.4125333 20.8636364,62.4 C20.8636364,60.4829333 19.3058182,58.9333333 17.3863636,58.9333333 C15.4669091,58.9333333 13.9090909,60.4829333 13.9090909,62.4 C13.9090909,69.1114667 19.8830455,74.7032 27.8181818,75.9858667 L27.8181818,79.7333333 C27.8181818,81.6504 29.376,83.2 31.2954545,83.2 C33.2149091,83.2 34.7727273,81.6504 34.7727273,79.7333333 L34.7727273,75.9858667 C42.7078636,74.7032 48.6818182,69.1114667 48.6818182,62.4 C48.6818182,55.6885333 42.7078636,50.0968 34.7727273,48.8141333 L34.7727273,35.0896 C38.8167955,36.0429333 41.7272727,38.5874667 41.7272727,41.6 Z M27.8181818,48.1104 C23.7741136,47.1536 20.8636364,44.6125333 20.8636364,41.6 C20.8636364,38.5874667 23.7741136,36.0429333 27.8181818,35.0896 L27.8181818,48.1104 Z M41.7272727,62.4 C41.7272727,65.4125333 38.8167955,67.9536 34.7727273,68.9104 L34.7727273,55.8896 C38.8167955,56.8429333 41.7272727,59.3874667 41.7272727,62.4 Z M149.522727,0 C149.522727,0 87.0083182,0.0589333333 86.6397273,0.0589333333 C84.8628409,0.2184 83.4545455,1.65706667 83.4545455,3.46666667 C83.4545455,4.43733333 83.8579091,5.30746667 84.5012045,5.9384 C85.2244773,6.83973333 93.8863636,17.8741333 93.8863636,27.7333333 C93.8863636,41.5688 85.0193182,49.192 82.8008182,52 C80.4814773,54.9397333 73.0227273,62.4312 73.0227273,76.2666667 C73.0227273,88.7293333 84.0178636,102.485067 84.0178636,102.485067 C84.0178636,102.485067 84.8315455,104 86.9318182,104 L149.522727,104 C151.442182,104 153,102.4504 153,100.533333 L153,3.46666667 C153,1.5496 151.442182,0 149.522727,0 Z M146.045455,97.0666667 L88.7469545,97.0666667 C85.8225682,92.9274667 79.9772727,86.5834667 79.9772727,76.2666667 C79.9772727,62.4312 88.9555909,55.172 91.1706136,52 C91.7478409,51.1749333 92.7527727,49.9754667 93.8863636,48.4362667 L93.8863636,48.5333333 L146.045455,48.5333333 L146.045455,97.0666667 Z M146.045455,41.6 L97.9026136,41.6 C99.5473636,37.9426667 100.840909,33.4048 100.840909,27.7333333 L146.045455,27.7333333 L146.045455,41.6 Z M146.045455,20.8 L100.020273,20.8 C98.5806818,14.6813333 95.5241591,9.93546667 93.2187273,6.93333333 L146.045455,6.93333333 L146.045455,20.8 Z M114.75,83.2 C116.669455,83.2 118.227273,81.6504 118.227273,79.7333333 L118.227273,72.8 C118.227273,70.8829333 116.669455,69.3333333 114.75,69.3333333 C112.830545,69.3333333 111.272727,70.8829333 111.272727,72.8 L111.272727,79.7333333 C111.272727,81.6504 112.830545,83.2 114.75,83.2 Z M128.659091,83.2 C130.578545,83.2 132.136364,81.6504 132.136364,79.7333333 L132.136364,72.8 C132.136364,70.8829333 130.578545,69.3333333 128.659091,69.3333333 C126.739636,69.3333333 125.181818,70.8829333 125.181818,72.8 L125.181818,79.7333333 C125.181818,81.6504 126.739636,83.2 128.659091,83.2 Z M71.9378182,97.9333333 C71.9378182,97.9333333 62.5909091,87.5576 62.5909091,76.2666667 C62.5909091,62.4312 71.5692273,55.172 73.78425,52 C75.8740909,49.0048 83.4545455,41.5688 83.4545455,27.7333333 C83.4545455,17.3125333 76.7364545,7.15173333 72.7619318,2.18053333 C71.8752273,0.637866667 69.5454545,0 69.5454545,0 L3.47727273,0 C1.55781818,0 0,1.5496 0,3.46666667 L0,100.533333 C0,102.4504 1.55781818,104 3.47727273,104 L69.5454545,104 C71.4649091,104 73.0227273,102.4504 73.0227273,100.533333 C73.0227273,98.6024 71.9378182,97.9333333 71.9378182,97.9333333 Z M6.95454545,97.0666667 L6.95454545,6.93333333 L67.6294773,6.93333333 C70.5260455,11.1210667 76.5,17.3125333 76.5,27.7333333 C76.5,41.5688 67.6329545,49.192 65.4144545,52 C63.0951136,54.9397333 55.6363636,62.4312 55.6363636,76.2666667 C55.6363636,85.7792 60.0942273,93.0072 63.2098636,97.0666667 L6.95454545,97.0666667 Z" id="Shape"></path>
            </g>
        </g>
    </g>
</svg>