<?xml version="1.0" encoding="UTF-8"?>
<svg width="131px" height="131px" viewBox="0 0 131 131" version="1.1" xmlns="http://www.w3.org/2000/svg" xmlns:xlink="http://www.w3.org/1999/xlink">
    <!-- Generator: Sketch 42 (36781) - http://www.bohemiancoding.com/sketch -->
    <title>Package iso</title>
    <desc>Created with Sketch.</desc>
    <defs></defs>
    <g id="Page-1" stroke="none" stroke-width="1" fill="none" fill-rule="evenodd">
        <g id="Package-iso" fill-rule="nonzero">
            <g id="color_37_" transform="translate(32.750000, 17.863636)" fill-opacity="0.564792799" fill="#1DA22C">
                <path d="M62.5227273,0 L0,29.7727273 L0,65.5 C0,65.7262727 0.0506136364,65.9406364 0.131,66.1490455 C0.434681818,67.4709545 1.56306818,68.4772727 2.97727273,68.4772727 L15.7884773,73.5803182 C16.3243864,74.1043182 17.0567955,74.4318182 17.8636364,74.4318182 C19.5100682,74.4318182 20.8409091,73.1009773 20.8409091,71.4545455 L20.8409091,41.6818182 L83.3636364,8.93181818 L62.5227273,0 Z" id="Shape"></path>
            </g>
            <g id="ourline" fill="#3B673B">
                <path d="M129.294023,30.0823636 L129.302955,30.0615227 L66.7802273,0.288795455 C66.7802273,0.288795455 66.4318864,0 65.5,0 C64.5681136,0 64.2197727,0.288795455 64.2197727,0.288795455 L1.69704545,30.0615227 C1.69704545,30.0615227 1.70002273,30.0734318 1.703,30.0764091 C1.46779545,30.1776364 0,30.9755455 0,32.75 L0,98.25 C0,99.4319773 0.702636364,100.438295 1.70597727,100.917636 L1.69704545,100.9355 L64.2197727,130.708227 L64.2287045,130.690364 C64.6187273,130.877932 65.0415,131 65.5,131 C65.9585,131 66.3812727,130.877932 66.7712955,130.690364 L66.7802273,130.708227 L129.302955,100.9355 L129.294023,100.917636 C130.297364,100.438295 131,99.4319773 131,98.25 L131,32.75 C131,32.0979773 130.618909,30.7135455 129.294023,30.0823636 Z M98.3214545,21.9037955 L38.7045455,49.7115227 L38.7045455,78.9662045 L29.7727273,75.3934773 L29.7727273,44.6590909 L88.5321818,17.2413864 L98.3214545,21.9037955 Z M65.5,6.27311364 L81.4998636,13.8949318 L25.9022727,40.3688409 L9.90240909,32.75 L65.5,6.27311364 Z M62.5227273,123.306727 L5.95454545,96.3683636 L5.95454545,37.466 L23.8181818,45.9720682 L23.8181818,77.4090909 C23.8181818,78.6625227 24.5982273,79.7224318 25.6938636,80.1630682 L25.6908864,80.1749773 L40.5206818,86.1057045 C39.8597273,85.8258409 40.9523864,86.3409091 41.6818182,86.3409091 C43.32825,86.3409091 44.6590909,85.0100682 44.6590909,83.3636364 L44.6590909,55.8953182 L62.5227273,64.4013864 L62.5227273,123.306727 Z M65.5,59.2268864 L49.1994318,51.4651364 L105.29125,25.2264318 L121.097591,32.75 L65.5,59.2268864 Z M125.045455,96.3683636 L68.4772727,123.306727 L68.4772727,64.4043636 L125.045455,37.466 L125.045455,96.3683636 Z" id="Shape"></path>
            </g>
        </g>
    </g>
</svg>