<?xml version="1.0" encoding="UTF-8"?>
<svg width="22px" height="22px" viewBox="0 0 22 22" version="1.1" xmlns="http://www.w3.org/2000/svg" xmlns:xlink="http://www.w3.org/1999/xlink">
    <!-- Generator: Sketch 42 (36781) - http://www.bohemiancoding.com/sketch -->
    <title>Group</title>
    <desc>Created with Sketch.</desc>
    <defs></defs>
    <g id="Page-1" stroke="none" stroke-width="1" fill="none" fill-rule="evenodd">
        <g id="Group" fill-rule="nonzero" fill="#37C34A">
            <path d="M19.31875,9.28125 L11.34375,13.8875 C11.1375,14.025 10.8625,14.025 10.65625,13.8875 L2.68125,9.28125 L0.55,10.51875 C0.34375,10.65625 0.34375,11 0.55,11.1375 L10.725,16.98125 C10.93125,17.11875 11.20625,17.11875 11.4125,16.98125 L21.5875,11.1375 C21.79375,11 21.79375,10.65625 21.5875,10.51875 L19.31875,9.28125 Z" id="Shape"></path>
            <path d="M19.31875,14.09375 L11.34375,18.7 C11.1375,18.8375 10.8625,18.8375 10.65625,18.7 L2.68125,14.09375 L0.55,15.33125 C0.34375,15.46875 0.34375,15.8125 0.55,15.95 L10.725,21.79375 C10.93125,21.93125 11.20625,21.93125 11.4125,21.79375 L21.5875,15.95 C21.79375,15.8125 21.79375,15.46875 21.5875,15.33125 L19.31875,14.09375 Z" id="Shape"></path>
            <path d="M10.65625,12.5125 C10.8625,12.65 11.1375,12.65 11.34375,12.5125 L21.51875,6.66875 C21.725,6.53125 21.725,6.1875 21.51875,6.05 L11.34375,0.20625 C11.1375,0.06875 10.8625,0.06875 10.65625,0.20625 L0.48125,6.05 C0.275,6.1875 0.275,6.53125 0.48125,6.66875 L10.65625,12.5125 Z" id="Shape"></path>
        </g>
    </g>
</svg>